HIERARCHY
ROOT SimulationBone
{
	OFFSET 0.000000 0.000000 0.000000
	CHANNELS 6 Xposition Yposition Zposition Zrotation Yrotation Xrotation 
	JOINT Hips
	{
		OFFSET 0.000000 0.000000 0.000000
		CHANNELS 6 Xposition Yposition Zposition Zrotation Yrotation Xrotation 
		JOINT LeftUpLeg
		{
			OFFSET 0.103456 1.857826 10.548504
			CHANNELS 3 Zrotation Yrotation Xrotation
			JOINT LeftLeg
			{
				OFFSET 43.499996 -0.000038 0.000006
				CHANNELS 3 Zrotation Yrotation Xrotation
				JOINT LeftFoot
				{
					OFFSET 42.372192 0.000011 -0.000004
					CHANNELS 3 Zrotation Yrotation Xrotation
					JOINT LeftToe
					{
						OFFSET 17.300018 0.000006 0.000004
						CHANNELS 3 Zrotation Yrotation Xrotation
						End Site
						{
							OFFSET 0.000000 0.000000 0.000000
						}
					}
				}
			}
		}
		JOINT RightUpLeg
		{
			OFFSET 0.103455 1.857819 -10.548502
			CHANNELS 3 Zrotation Yrotation Xrotation
			JOINT RightLeg
			{
				OFFSET 43.500038 -0.000031 0.000011
				CHANNELS 3 Zrotation Yrotation Xrotation
				JOINT RightFoot
				{
					OFFSET 42.372261 -0.000008 0.000014
					CHANNELS 3 Zrotation Yrotation Xrotation
					JOINT RightToe
					{
						OFFSET 17.299999 -0.000004 0.000004
						CHANNELS 3 Zrotation Yrotation Xrotation
						End Site
						{
							OFFSET 0.000000 0.000000 0.000000
						}
					}
				}
			}
		}
		JOINT Spine
		{
			OFFSET 6.901965 -2.603737 -0.000000
			CHANNELS 3 Zrotation Yrotation Xrotation
			JOINT Spine1
			{
				OFFSET 12.588105 0.000013 0.000001
				CHANNELS 3 Zrotation Yrotation Xrotation
				JOINT Spine2
				{
					OFFSET 12.343203 0.000010 -0.000000
					CHANNELS 3 Zrotation Yrotation Xrotation
					JOINT Neck
					{
						OFFSET 25.832893 -0.000038 0.000001
						CHANNELS 3 Zrotation Yrotation Xrotation
						JOINT Head
						{
							OFFSET 11.766606 0.000028 0.000001
							CHANNELS 3 Zrotation Yrotation Xrotation
							End Site
							{
								OFFSET 0.000000 0.000000 0.000000
							}
						}
					}
					JOINT LeftShoulder
					{
						OFFSET 19.745897 -1.480375 6.000107
						CHANNELS 3 Zrotation Yrotation Xrotation
						JOINT LeftArm
						{
							OFFSET 11.284126 -0.000009 -0.000017
							CHANNELS 3 Zrotation Yrotation Xrotation
							JOINT LeftForeArm
							{
								OFFSET 33.000046 0.000006 0.000030
								CHANNELS 3 Zrotation Yrotation Xrotation
								JOINT LeftHand
								{
									OFFSET 25.200006 0.000034 0.000015
									CHANNELS 3 Zrotation Yrotation Xrotation
									End Site
									{
										OFFSET 0.000000 0.000000 0.000000
									}
								}
							}
						}
					}
					JOINT RightShoulder
					{
						OFFSET 19.746096 -1.480394 -6.000075
						CHANNELS 3 Zrotation Yrotation Xrotation
						JOINT RightArm
						{
							OFFSET 11.284135 -0.000006 -0.000006
							CHANNELS 3 Zrotation Yrotation Xrotation
							JOINT RightForeArm
							{
								OFFSET 33.000095 0.000018 0.000006
								CHANNELS 3 Zrotation Yrotation Xrotation
								JOINT RightHand
								{
									OFFSET 25.199783 0.000116 0.000436
									CHANNELS 3 Zrotation Yrotation Xrotation
									End Site
									{
										OFFSET 0.000000 0.000000 0.000000
									}
								}
							}
						}
					}
				}
			}
		}
	}
}
MOTION
Frames: 7
Frame Time: 0.033333
222.963586 0.000000 -265.779902 0.000000 109.369446 0.000000 0.335133 90.079147 2.669460 95.101675 4.763717 179.739932 161.421686 3.246800 167.611476 -26.218636 1.568061 -2.169082 79.256900 3.278043 7.010523 21.454553 0.003093 0.000000 -173.336554 -2.461592 -174.148937 -67.486073 1.115057 8.914076 54.378428 2.680590 19.292933 21.454560 -0.003111 -0.000019 9.135792 -0.057390 0.781518 8.257591 -0.170384 1.556945 7.939613 -0.160837 1.557945 -26.808486 -3.986431 4.534441 -2.651092 0.788037 2.001310 -172.354018 -76.972865 -9.232894 26.112547 46.640483 40.012508 -106.834185 2.049331 2.908923 2.005383 -14.069888 3.103749 133.036198 74.749242 -46.554662 18.235570 -55.905276 -37.135035 -103.811205 0.831208 -3.022433 -8.738804 14.751221 -30.410212 
220.563455 0.000000 -274.271434 0.000000 109.944735 0.000000 -0.742382 87.756218 2.168260 95.501617 2.811695 178.696375 160.178837 6.587004 167.597829 -38.619792 4.506277 -4.996905 87.103531 4.998330 9.418794 21.454553 0.003091 0.000001 -179.286619 1.859399 -172.016333 -77.732156 -0.873268 10.214470 57.768026 1.422807 19.896679 21.454558 -0.003112 -0.000011 9.428319 -0.593424 0.711187 8.836859 -1.239408 1.375061 8.518789 -1.230956 1.382528 -25.435030 -2.229352 3.954636 -4.524830 -0.453878 2.695202 -175.917000 -75.789411 -5.575926 16.307973 45.900927 32.569091 -102.798500 1.133071 2.795039 1.170252 -14.227620 7.309645 136.206704 74.240898 -43.383118 19.209400 -56.689324 -35.231704 -102.005795 1.099748 -2.960909 -9.369954 13.937242 -32.400334 
218.160618 0.000000 -282.730733 0.000000 110.550149 0.000000 -1.776245 85.984108 1.754196 95.635193 2.040587 177.669055 161.947596 7.569895 167.505362 -46.331612 5.302160 -6.101130 95.773370 4.673786 7.206840 21.454555 0.003090 0.000000 173.286421 3.877697 -172.854685 -85.088318 -2.279159 10.516653 63.906030 -0.341561 18.694480 21.454553 -0.003107 -0.000012 9.675004 -0.889108 0.689600 9.327918 -1.830929 1.305416 9.009737 -1.822870 1.316462 -24.947327 -0.601535 3.599502 -5.751277 -1.101268 3.356041 -179.715937 -74.558249 -1.663090 6.734397 45.558369 24.752816 -98.900975 0.231657 2.684978 0.249337 -14.331765 10.535148 139.694485 73.416317 -39.907214 21.070864 -57.592647 -33.713025 -98.934955 1.464907 -2.849297 -10.643941 14.701439 -33.577603 
215.738020 0.000000 -291.109165 0.000000 111.212077 0.000000 -2.706028 85.846863 1.539484 95.339172 1.826268 176.797401 167.108556 7.448403 166.320830 -46.740187 5.669067 -5.444451 100.177503 3.846769 6.216950 21.454551 0.003090 0.000001 165.816994 3.581213 -175.866416 -86.390357 -2.253263 9.810978 69.661543 -3.104066 11.665067 21.454555 -0.003105 -0.000020 9.759230 -0.936562 0.432403 9.500367 -1.905464 0.786571 9.182111 -1.900545 0.798079 -25.312481 0.098868 4.220731 -5.614770 -1.193732 4.299265 178.267937 -74.154196 0.414066 0.727804 47.997560 17.959357 -96.959555 -0.194539 2.628360 0.031186 -14.242030 12.104270 141.308445 73.131628 -38.287667 23.207318 -58.278876 -33.857743 -95.984894 1.706337 -2.734050 -11.031012 16.908487 -32.054573 
213.299996 0.000000 -299.406867 0.000000 111.943908 0.000000 -3.008714 87.274406 1.550915 94.787528 2.946763 177.192364 174.528026 5.641805 166.703157 -42.494258 5.082945 -3.791055 99.654072 2.758200 5.438242 21.454551 0.003088 0.000000 160.909503 1.369404 -177.900446 -80.646168 -1.079015 11.508108 73.526085 -4.853890 11.347711 21.454562 -0.003109 -0.000015 9.643680 -0.482431 -0.237140 9.276935 -0.944326 -0.512201 8.958794 -0.947261 -0.506480 -25.644191 0.277490 5.577517 -4.953552 -1.550768 5.726703 178.635033 -74.444732 0.030004 -0.738415 52.845792 13.935698 -98.255604 0.209015 2.657861 0.470768 -14.297364 12.018520 141.716890 73.663126 -37.831236 25.910808 -57.835050 -36.396323 -94.960742 1.682774 -2.686518 -10.359090 18.849536 -28.906532 
210.815538 0.000000 -307.611391 0.000000 112.740525 0.000000 -2.753813 89.508133 1.662486 94.060013 4.303100 178.363887 -178.289521 2.951599 168.724456 -37.334347 3.216403 -2.361861 93.052551 2.092929 4.510335 21.454553 0.003084 0.000001 158.409763 -0.767897 -179.363090 -69.928918 0.805274 12.710041 75.587217 -6.149747 10.794784 21.454560 -0.003100 -0.000021 9.383170 0.124104 -1.011768 8.750650 0.324256 -2.011236 8.432768 0.312239 -2.013146 -25.490411 0.715115 6.645879 -4.988453 -2.276441 7.124238 179.625943 -74.814265 -0.993879 0.599106 57.058366 14.254109 -101.712104 1.154204 2.745478 0.857054 -14.767842 10.313669 142.716816 74.323345 -36.764067 29.807379 -55.999437 -40.127344 -96.136429 1.466321 -2.724086 -9.823253 19.457105 -26.691413 
208.255763 0.000000 -315.708880 0.000000 113.589547 0.000000 -2.062898 91.718689 1.727787 93.152812 5.001240 179.113875 -172.786997 0.135602 168.964673 -33.651707 2.012415 0.097199 81.857714 0.563958 2.896350 21.454557 0.003095 -0.000001 157.476322 -1.765599 178.663883 -56.116076 2.803789 13.112738 75.771721 -6.612992 10.563206 21.454558 -0.003114 -0.000018 9.030320 0.526377 -1.457435 8.033728 1.152439 -2.874962 7.715996 1.135211 -2.881858 -25.511849 1.559286 6.926892 -5.167687 -2.702723 7.917582 179.874999 -75.229336 -1.258050 1.732394 58.821056 17.640770 -105.269908 2.046318 2.840525 0.814320 -14.949472 7.674025 144.417219 74.634263 -35.011509 35.263471 -53.560793 -43.803424 -98.251930 1.207172 -2.800747 -9.539591 19.281493 -25.801987 
